# xmcd
#
# Track frame offsets: 
#        150
#        19600
#        30612
#        45162
#        55750
#        68562
#        84375
#        101250
#        111500
#        121200
#        141100
#        153662
#
# Disc length: 2252 seconds
#
# Revision: 1
# Processed by: cddbd v1.4PL0 Copyright (c) Steve Scherf et al.
# Submitted via: ExactAudioCopy v0.90b4
#
DISCID=8e08ca0c
DTITLE=Peppino Di Capri - La Canzone Napoletana Malatia
DYEAR=1900
DGENRE=pop
TTITLE0=Luna Caprese
TTITLE1=Scetate!
TTITLE2=Ghiaccio
TTITLE3=Piscatore 'e Pusilleco!
TTITLE4=No, nun me di' ca me vuo' bene
TTITLE5=Vicino 'o mare
TTITLE6=I' te' vurria vasà
TTITLE7=Freva
TTITLE8=Tutta pe' mme!
TTITLE9='A pianta 'e stelle
TTITLE10=Nun giurà
TTITLE11=Malatia
EXTD=
EXTT0=
EXTT1=
EXTT2=
EXTT3=
EXTT4=
EXTT5=
EXTT6=
EXTT7=
EXTT8=
EXTT9=
EXTT10=
EXTT11=
PLAYORDER=
